HIERARCHY
ROOT Hips
{
	OFFSET 0.000000 71.427986 0.000000
	CHANNELS 6 Xposition Yposition Zposition Xrotation Yrotation Zrotation
	JOINT Pelvis
	{
		OFFSET 0.000000 0.000000 0.000000
		CHANNELS 3 Xrotation Yrotation Zrotation
		JOINT LeftUpLeg
		{
			OFFSET 6.797100 -2.508499 -1.318700
			CHANNELS 3 Xrotation Yrotation Zrotation
			JOINT LeftLeg
			{
				OFFSET 0.069008 -29.241863 0.690200
				CHANNELS 3 Xrotation Yrotation Zrotation
				JOINT LeftFoot
				{
					OFFSET -0.069008 -29.568123 -0.266800
					CHANNELS 3 Xrotation Yrotation Zrotation
					JOINT LeftToeBase
					{
						OFFSET 3.145500 -8.631000 16.059900
						CHANNELS 3 Xrotation Yrotation Zrotation
						End Site
						{
							OFFSET 0.000000 18.501587 0.000000
						}
					}
				}
			}
			JOINT Left_ShortSleeve
			{
				OFFSET 0.265923 -10.480953 1.153800
				CHANNELS 3 Xrotation Yrotation Zrotation
				End Site
				{
					OFFSET 1.725763 19.823879 0.000000
				}
			}
		}
		JOINT RightUpLeg
		{
			OFFSET -6.797100 -2.508499 -1.318700
			CHANNELS 3 Xrotation Yrotation Zrotation
			JOINT RightLeg
			{
				OFFSET -0.082453 -29.241932 0.688000
				CHANNELS 3 Xrotation Yrotation Zrotation
				JOINT RightFoot
				{
					OFFSET 0.082453 -29.568058 -0.264600
					CHANNELS 3 Xrotation Yrotation Zrotation
					JOINT RightToeBase
					{
						OFFSET -3.115300 -8.682800 16.113400
						CHANNELS 3 Xrotation Yrotation Zrotation
						End Site
						{
							OFFSET 0.000000 18.567114 0.000000
						}
					}
				}
			}
			JOINT Right_ShortSleeve
			{
				OFFSET -0.265923 -10.480953 1.153800
				CHANNELS 3 Xrotation Yrotation Zrotation
				End Site
				{
					OFFSET -1.725766 19.823910 0.000000
				}
			}
		}
	}
	JOINT Spine
	{
		OFFSET 0.000000 13.368103 0.470500
		CHANNELS 3 Xrotation Yrotation Zrotation
		JOINT Spine1
		{
			OFFSET 0.147000 13.837402 0.538800
			CHANNELS 3 Xrotation Yrotation Zrotation
			JOINT Spine2
			{
				OFFSET 0.168000 16.242897 -1.435500
				CHANNELS 3 Xrotation Yrotation Zrotation
				JOINT Neck
				{
					OFFSET 0.217200 18.631500 -1.679100
					CHANNELS 3 Xrotation Yrotation Zrotation
					JOINT Head
					{
						OFFSET 0.000000 6.599396 1.385900
						CHANNELS 3 Xrotation Yrotation Zrotation
						JOINT Hat
						{
							OFFSET -0.532200 27.220596 -10.096100
							CHANNELS 3 Xrotation Yrotation Zrotation
							End Site
							{
								OFFSET 0.000000 22.029861 0.000000
							}
						}
						JOINT HairD
						{
							OFFSET -10.777400 17.437393 -1.325900
							CHANNELS 3 Xrotation Yrotation Zrotation
							JOINT HairD1
							{
								OFFSET -3.290299 -11.051193 1.062200
								CHANNELS 3 Xrotation Yrotation Zrotation
								End Site
								{
									OFFSET 0.000000 11.579437 0.000000
								}
							}
						}
						JOINT HairB
						{
							OFFSET -10.777400 17.437393 1.467900
							CHANNELS 3 Xrotation Yrotation Zrotation
							JOINT HairB1
							{
								OFFSET -1.561200 -12.956299 3.590200
								CHANNELS 3 Xrotation Yrotation Zrotation
								End Site
								{
									OFFSET 0.000000 13.534866 0.000000
								}
							}
						}
						JOINT HairA
						{
							OFFSET 9.713100 17.437393 1.467900
							CHANNELS 3 Xrotation Yrotation Zrotation
							JOINT HairA1
							{
								OFFSET 1.561200 -12.956299 3.590200
								CHANNELS 3 Xrotation Yrotation Zrotation
								End Site
								{
									OFFSET 0.000000 13.534866 0.000000
								}
							}
						}
						JOINT HairC
						{
							OFFSET 9.713100 17.437393 -1.325900
							CHANNELS 3 Xrotation Yrotation Zrotation
							JOINT HairC1
							{
								OFFSET 3.290300 -11.051193 1.062200
								CHANNELS 3 Xrotation Yrotation Zrotation
								End Site
								{
									OFFSET 0.000000 11.579437 0.000000
								}
							}
						}
					}
				}
				JOINT LeftShoulder
				{
					OFFSET 5.101800 15.108002 -2.763700
					CHANNELS 3 Xrotation Yrotation Zrotation
					JOINT LeftArm
					{
						OFFSET 9.825497 2.506317 -1.597400
						CHANNELS 3 Xrotation Yrotation Zrotation
						JOINT LeftForeArm
						{
							OFFSET 21.966244 0.000000 0.000000
							CHANNELS 3 Xrotation Yrotation Zrotation
							JOINT LeftHand
							{
								OFFSET 33.879036 0.000000 0.000000
								CHANNELS 3 Xrotation Yrotation Zrotation
								JOINT LeftHandThumb1
								{
									OFFSET 6.715286 -2.359680 3.363841
									CHANNELS 3 Xrotation Yrotation Zrotation
									JOINT LeftHandThumb2
									{
										OFFSET 2.507072 -1.447464 1.447461
										CHANNELS 3 Xrotation Yrotation Zrotation
										JOINT LeftHandThumb3
										{
											OFFSET 2.898338 -1.673355 1.673357
											CHANNELS 3 Xrotation Yrotation Zrotation
											End Site
											{
												OFFSET -0.295959 3.727692 -0.131651
											}
										}
									}
								}
								JOINT LeftHandIndex1
								{
									OFFSET 14.190811 -0.254547 3.840278
									CHANNELS 3 Xrotation Yrotation Zrotation
									JOINT LeftHandIndex2
									{
										OFFSET 3.551727 0.000000 -0.000000
										CHANNELS 3 Xrotation Yrotation Zrotation
										JOINT LeftHandIndex3
										{
											OFFSET 2.894196 0.000000 0.000000
											CHANNELS 3 Xrotation Yrotation Zrotation
											End Site
											{
												OFFSET -1.000603 2.690872 0.366626
											}
										}
									}
								}
								JOINT LeftHandMiddle1
								{
									OFFSET 13.776489 0.000000 0.000000
									CHANNELS 3 Xrotation Yrotation Zrotation
									JOINT LeftHandMiddle2
									{
										OFFSET 3.438232 0.000000 0.000000
										CHANNELS 3 Xrotation Yrotation Zrotation
										JOINT LeftHandMiddle3
										{
											OFFSET 3.691551 0.000000 0.000000
											CHANNELS 3 Xrotation Yrotation Zrotation
											End Site
											{
												OFFSET -1.082298 3.499527 0.457670
											}
										}
									}
								}
								JOINT LeftHandRing1
								{
									OFFSET 13.966164 -0.268127 -3.067488
									CHANNELS 3 Xrotation Yrotation Zrotation
									JOINT LeftHandRing2
									{
										OFFSET 3.162567 0.000000 0.000000
										CHANNELS 3 Xrotation Yrotation Zrotation
										JOINT LeftHandRing3
										{
											OFFSET 3.324348 0.000000 0.000000
											CHANNELS 3 Xrotation Yrotation Zrotation
											End Site
											{
												OFFSET -0.861900 3.184998 0.405154
											}
										}
									}
								}
								JOINT LeftHandPinky1
								{
									OFFSET 13.131393 -0.168503 -5.746925
									CHANNELS 3 Xrotation Yrotation Zrotation
									JOINT LeftHandPinky2
									{
										OFFSET 2.849182 0.000000 0.000000
										CHANNELS 3 Xrotation Yrotation Zrotation
										JOINT LeftHandPinky3
										{
											OFFSET 2.805038 0.000000 0.000000
											CHANNELS 3 Xrotation Yrotation Zrotation
											End Site
											{
												OFFSET -0.882500 2.642609 0.325652
											}
										}
									}
								}
							}
							JOINT Left_Sleeve
							{
								OFFSET 6.592125 -0.646545 0.805568
								CHANNELS 3 Xrotation Yrotation Zrotation
								End Site
								{
									OFFSET -0.000179 20.275787 -0.000000
								}
							}
						}
					}
				}
				JOINT RightShoulder
				{
					OFFSET -5.731700 15.108002 -2.763700
					CHANNELS 3 Xrotation Yrotation Zrotation
					JOINT RightArm
					{
						OFFSET -9.825497 2.506317 -1.597400
						CHANNELS 3 Xrotation Yrotation Zrotation
						JOINT RightForeArm
						{
							OFFSET -21.966242 0.000000 0.000000
							CHANNELS 3 Xrotation Yrotation Zrotation
							JOINT RightHand
							{
								OFFSET -33.879032 0.000000 0.000000
								CHANNELS 3 Xrotation Yrotation Zrotation
								JOINT RightHandThumb1
								{
									OFFSET -6.715286 -2.359680 3.363841
									CHANNELS 3 Xrotation Yrotation Zrotation
									JOINT RightHandThumb2
									{
										OFFSET -2.507072 -1.447464 1.447461
										CHANNELS 3 Xrotation Yrotation Zrotation
										JOINT RightHandThumb3
										{
											OFFSET -2.898338 -1.673355 1.673357
											CHANNELS 3 Xrotation Yrotation Zrotation
											End Site
											{
												OFFSET 0.295959 3.727692 -0.131651
											}
										}
									}
								}
								JOINT RightHandIndex1
								{
									OFFSET -14.190811 -0.254547 3.840278
									CHANNELS 3 Xrotation Yrotation Zrotation
									JOINT RightHandIndex2
									{
										OFFSET -3.551727 0.000000 -0.000000
										CHANNELS 3 Xrotation Yrotation Zrotation
										JOINT RightHandIndex3
										{
											OFFSET -2.894196 0.000000 0.000000
											CHANNELS 3 Xrotation Yrotation Zrotation
											End Site
											{
												OFFSET 1.000603 2.690872 0.366626
											}
										}
									}
								}
								JOINT RightHandMiddle1
								{
									OFFSET -13.776489 0.000000 0.000000
									CHANNELS 3 Xrotation Yrotation Zrotation
									JOINT RightHandMiddle2
									{
										OFFSET -3.438232 0.000000 0.000000
										CHANNELS 3 Xrotation Yrotation Zrotation
										JOINT RightHandMiddle3
										{
											OFFSET -3.691551 0.000000 0.000000
											CHANNELS 3 Xrotation Yrotation Zrotation
											End Site
											{
												OFFSET 1.082298 3.499527 0.457670
											}
										}
									}
								}
								JOINT RightHandRing1
								{
									OFFSET -13.966164 -0.268127 -3.067488
									CHANNELS 3 Xrotation Yrotation Zrotation
									JOINT RightHandRing2
									{
										OFFSET -3.162567 0.000000 0.000000
										CHANNELS 3 Xrotation Yrotation Zrotation
										JOINT RightHandRing3
										{
											OFFSET -3.324348 0.000000 0.000000
											CHANNELS 3 Xrotation Yrotation Zrotation
											End Site
											{
												OFFSET 0.861900 3.184998 0.405154
											}
										}
									}
								}
								JOINT RightHandPinky1
								{
									OFFSET -13.131393 -0.168503 -5.746925
									CHANNELS 3 Xrotation Yrotation Zrotation
									JOINT RightHandPinky2
									{
										OFFSET -2.849182 0.000000 0.000000
										CHANNELS 3 Xrotation Yrotation Zrotation
										JOINT RightHandPinky3
										{
											OFFSET -2.805038 0.000000 0.000000
											CHANNELS 3 Xrotation Yrotation Zrotation
											End Site
											{
												OFFSET 0.882500 2.642609 0.325652
											}
										}
									}
								}
							}
							JOINT Right_Sleeve
							{
								OFFSET -6.592125 -0.646545 0.805568
								CHANNELS 3 Xrotation Yrotation Zrotation
								End Site
								{
									OFFSET 0.000179 20.275787 -0.000000
								}
							}
						}
					}
				}
				JOINT Bind_Right_JacketString
				{
					OFFSET -3.534800 11.969597 7.200700
					CHANNELS 3 Xrotation Yrotation Zrotation
					JOINT Bind_Right_JacketString1
					{
						OFFSET -0.319900 -6.102600 2.794100
						CHANNELS 3 Xrotation Yrotation Zrotation
						End Site
						{
							OFFSET 0.000000 6.719452 0.000000
						}
					}
				}
				JOINT Bind_Left_JacketString
				{
					OFFSET 2.904800 11.969597 7.200700
					CHANNELS 3 Xrotation Yrotation Zrotation
					JOINT Bind_Left_JacketString1
					{
						OFFSET 0.364800 -5.904503 3.186800
						CHANNELS 3 Xrotation Yrotation Zrotation
						End Site
						{
							OFFSET 0.000000 6.719513 0.000000
						}
					}
				}
				JOINT HairE
				{
					OFFSET 5.915200 17.612701 -11.592200
					CHANNELS 3 Xrotation Yrotation Zrotation
					JOINT HairE1
					{
						OFFSET 0.289200 -7.171898 -1.284500
						CHANNELS 3 Xrotation Yrotation Zrotation
						End Site
						{
							OFFSET 0.000000 7.291756 0.000000
						}
					}
				}
				JOINT HairF
				{
					OFFSET -0.864800 17.612701 -11.592200
					CHANNELS 3 Xrotation Yrotation Zrotation
					JOINT HairF1
					{
						OFFSET 0.000000 -14.087097 -2.127501
						CHANNELS 3 Xrotation Yrotation Zrotation
						End Site
						{
							OFFSET 0.000000 14.246841 0.000000
						}
					}
				}
				JOINT HairG
				{
					OFFSET -8.087700 17.612701 -11.592200
					CHANNELS 3 Xrotation Yrotation Zrotation
					JOINT HairG1
					{
						OFFSET -0.293600 -6.081398 -0.910100
						CHANNELS 3 Xrotation Yrotation Zrotation
						End Site
						{
							OFFSET 0.000000 6.156120 0.000000
						}
					}
				}
			}
		}
	}
	JOINT Pouch
	{
		OFFSET 0.000000 4.394501 10.847300
		CHANNELS 3 Xrotation Yrotation Zrotation
		End Site
		{
			OFFSET 0.000000 21.880577 0.000000
		}
	}
	JOINT Bag
	{
		OFFSET -13.229000 4.813004 -0.593300
		CHANNELS 3 Xrotation Yrotation Zrotation
		End Site
		{
			OFFSET 0.000000 21.880577 0.000000
		}
	}
	JOINT OccupyGuyFacialAnim_Joint
	{
		OFFSET 1.000000 -70.206398 -1.655000
		CHANNELS 3 Xrotation Yrotation Zrotation
		End Site
		{
			OFFSET 0.000000 21.880577 0.000000
		}
	}
}
MOTION
Frames: 4
Frame Time: 0.033333
5.272352 66.119896 1.264522 -2.857929 -53.014685 -11.570331 0.000000 -0.000003 -0.000000 -26.368990 35.913657 26.331209 49.741023 -0.338015 -1.802285 -33.433438 15.475216 0.293947 0.000000 0.000000 0.000000 -0.000000 -0.000000 -0.000000 -29.220304 25.787632 11.147676 36.238972 0.762950 1.351395 -14.726270 6.895293 10.848041 -0.000000 -0.000003 0.000000 0.000002 0.000000 -0.000000 4.033414 -6.590277 0.611929 8.133289 -13.216235 1.201768 8.133286 -13.216223 1.201759 -9.185360 -43.006747 -8.259875 6.733846 -1.931886 12.540152 -0.000000 -0.000001 0.000000 -0.000000 -0.000001 0.000000 -0.000000 -0.000001 0.000001 -0.000000 -0.000001 0.000001 -0.000000 0.000000 0.000000 -0.000000 -0.000001 0.000001 -0.000000 0.000000 0.000000 -0.000000 -0.000001 0.000000 -0.000000 -0.000001 0.000000 -1.540772 12.027255 -14.262144 31.213292 -12.430129 -28.126193 13.368148 -95.456265 12.484011 50.107057 5.032948 6.182186 -36.712601 8.816041 -10.778137 -16.242075 26.446807 7.523487 -0.000004 0.000002 -0.000003 -5.519858 3.879121 -28.069805 0.072889 0.476086 -26.350971 -0.000000 0.000000 -0.000000 -1.215922 0.186148 -38.875675 -0.547438 -2.157335 -27.440751 -0.000000 0.000000 0.000001 -2.185472 0.845717 -45.204098 -0.810301 -2.712137 -33.782587 -0.000001 0.000002 -0.000001 -4.007391 2.829446 -51.182070 -1.975652 -4.777348 -45.312312 0.000000 -0.000000 -0.000002 0.000001 -0.000001 0.000001 0.085377 8.686539 12.603061 10.359132 44.463343 42.665791 0.811390 74.306393 -0.798760 39.697623 5.503292 -10.347494 13.845035 2.172813 15.469564 5.972401 -16.506692 1.763681 0.000001 -0.000001 -0.000002 -5.943986 -7.233485 32.345023 0.147544 -0.760029 18.957933 -0.000002 -0.000001 0.000005 -11.428611 -6.365541 41.799477 -0.583861 1.928654 32.970115 0.000001 -0.000002 -0.000001 -12.698181 -5.914580 46.922802 -1.974366 4.429477 45.904093 0.000001 -0.000002 0.000001 -15.015684 -4.744128 50.392425 -3.383178 7.643882 50.241977 0.000002 0.000003 0.000001 0.000000 0.000001 -0.000002 0.000000 -0.000000 0.000000 0.000000 0.000000 0.000000 0.000000 -0.000000 0.000000 0.000000 -0.000000 0.000000 0.000000 -0.000000 0.000000 0.000000 0.000000 0.000000 0.000000 -0.000000 0.000000 0.000000 -0.000000 0.000000 0.000000 -0.000000 0.000000 0.000000 0.000000 0.000000 0.000000 -0.000003 -0.000000 0.000000 -0.000003 -0.000000 0.000000 -0.000003 -0.000000 
5.270826 66.169327 1.289706 -3.047051 -52.823320 -11.588925 -0.000000 0.000002 0.000001 -25.956146 35.964805 26.034075 49.460607 -0.336559 -1.793080 -33.304139 15.400987 0.298627 0.000000 -0.000000 0.000000 -0.000001 0.000001 -0.000000 -28.816985 25.638765 10.845073 36.088715 0.757411 1.346097 -14.699202 6.993331 10.835316 0.000000 -0.000002 -0.000000 -0.000002 0.000002 0.000000 3.998809 -6.577028 0.583763 8.061931 -13.189360 1.152500 8.061933 -13.189357 1.152501 -9.255155 -42.964526 -8.336024 6.684076 -1.908866 12.540283 0.000000 0.000002 -0.000000 0.000000 0.000002 -0.000000 0.000000 0.000002 0.000000 0.000000 0.000002 0.000001 -0.000000 -0.000000 -0.000000 0.000000 0.000002 0.000001 -0.000000 -0.000000 -0.000000 0.000000 0.000002 -0.000000 0.000000 0.000002 -0.000000 -1.544827 12.016262 -14.314142 31.311298 -12.277896 -28.239697 13.556104 -95.360970 12.663931 50.199749 5.057131 6.045553 -36.712448 8.815911 -10.777977 -16.242666 26.446774 7.523576 -0.000002 -0.000003 -0.000001 -5.519823 3.879151 -28.069154 0.072881 0.476069 -26.350323 0.000002 -0.000000 0.000003 -1.215850 0.186261 -38.874688 -0.547396 -2.157273 -27.439926 0.000001 0.000003 -0.000003 -2.185374 0.846000 -45.202875 -0.810260 -2.712043 -33.781282 -0.000002 -0.000002 0.000001 -4.007945 2.830585 -51.180366 -1.975504 -4.777232 -45.310730 -0.000001 -0.000001 -0.000001 0.000001 0.000000 -0.000002 0.082203 8.711998 12.618271 10.422793 44.004529 42.728530 0.800837 74.298586 -0.788781 40.086565 5.612586 -10.251592 13.823049 2.094178 15.146571 5.970217 -16.503011 1.763389 -0.000004 0.000001 -0.000000 -5.944757 -7.232086 32.339453 0.147498 -0.759923 18.954806 -0.000000 0.000001 0.000001 -11.426128 -6.363082 41.793279 -0.583692 1.928444 32.965789 0.000000 -0.000000 -0.000003 -12.694798 -5.911604 46.915610 -1.973654 4.428801 45.894763 -0.000003 -0.000000 0.000002 -15.010999 -4.740504 50.385011 -3.381725 7.642815 50.230628 -0.000002 0.000004 0.000001 0.000001 -0.000002 0.000000 0.000000 -0.000000 -0.000001 0.000000 -0.000000 -0.000001 0.000000 -0.000000 -0.000001 0.000000 -0.000000 -0.000001 0.000000 -0.000000 -0.000001 0.000000 -0.000000 -0.000001 0.000000 -0.000000 -0.000001 0.000000 -0.000000 -0.000001 0.000000 -0.000000 -0.000001 0.000000 -0.000000 -0.000001 -0.000000 0.000002 0.000001 -0.000000 0.000002 0.000001 -0.000000 0.000002 0.000001 
5.270247 66.214783 1.299772 -3.254978 -52.660578 -11.615937 -0.000000 0.000001 0.000000 -25.533139 35.974798 25.716144 49.201203 -0.335499 -1.784546 -33.176162 15.396691 0.309904 -0.000000 0.000000 0.000000 0.000000 0.000000 -0.000000 -28.440288 25.489988 10.560318 35.961308 0.751550 1.341541 -14.665126 7.114752 10.818945 -0.000000 -0.000002 0.000000 0.000002 -0.000002 -0.000002 3.966897 -6.536696 0.553546 7.995163 -13.108729 1.097243 7.995168 -13.108777 1.097251 -9.316679 -42.926489 -8.426964 6.655013 -1.901383 12.568398 0.000000 0.000001 -0.000000 0.000000 0.000001 -0.000000 0.000000 0.000001 -0.000000 0.000000 0.000001 -0.000000 -0.000000 -0.000001 -0.000000 0.000000 0.000001 -0.000000 -0.000000 -0.000001 -0.000000 0.000000 0.000001 -0.000000 0.000000 0.000001 -0.000000 -1.548214 12.008740 -14.362040 31.388828 -12.177509 -28.260896 13.670066 -95.309464 12.773444 50.247564 5.061395 5.951152 -36.712308 8.815799 -10.777813 -16.243230 26.446723 7.523659 0.000002 -0.000000 -0.000001 -5.519793 3.879181 -28.068517 0.072873 0.476074 -26.349698 0.000002 -0.000001 -0.000002 -1.215765 0.186359 -38.873769 -0.547374 -2.157199 -27.439127 0.000001 0.000002 0.000003 -2.185279 0.846294 -45.201697 -0.810199 -2.711959 -33.780046 -0.000002 0.000000 -0.000001 -4.008461 2.831701 -51.178720 -1.975350 -4.777130 -45.309177 0.000001 -0.000001 0.000001 0.000000 -0.000000 -0.000001 0.076780 8.747435 12.660646 10.384852 43.483983 42.806086 0.787007 74.241288 -0.775844 40.407030 5.677872 -10.226172 13.801950 2.019434 14.840109 5.968221 -16.499623 1.763109 0.000000 0.000003 0.000001 -5.945475 -7.230758 32.334358 0.147465 -0.759825 18.951914 0.000002 0.000002 0.000001 -11.423845 -6.360781 41.787637 -0.583564 1.928222 32.961786 0.000004 -0.000002 -0.000001 -12.691686 -5.908827 46.909025 -1.973029 4.428167 45.886215 0.000003 0.000000 0.000002 -15.006691 -4.737166 50.378225 -3.380414 7.641798 50.220233 0.000002 0.000003 0.000003 0.000002 -0.000003 -0.000002 -0.000001 0.000000 0.000001 0.000000 0.000000 0.000000 -0.000001 0.000000 0.000001 -0.000001 0.000000 0.000001 -0.000001 0.000000 0.000001 0.000000 0.000000 0.000000 -0.000001 0.000000 0.000001 -0.000001 0.000000 0.000001 -0.000001 0.000000 0.000001 0.000000 0.000000 0.000000 -0.000000 0.000001 0.000000 -0.000000 0.000001 0.000000 -0.000000 0.000001 0.000000 
5.269355 66.251869 1.293410 -3.493635 -52.482771 -11.664896 -0.000000 -0.000001 -0.000000 -25.100660 35.906666 25.381246 48.989843 -0.335524 -1.777594 -33.057958 15.450137 0.326799 -0.000000 0.000000 0.000000 0.000001 -0.000000 -0.000000 -28.089098 25.341890 10.302381 35.888491 0.745236 1.338817 -14.643584 7.215521 10.796637 0.000000 0.000001 0.000000 0.000002 0.000003 0.000000 3.938847 -6.485698 0.521493 7.935616 -13.006801 1.036929 7.935611 -13.006780 1.036926 -9.354393 -42.880150 -8.515641 6.668232 -1.867100 12.580712 -0.000000 0.000000 -0.000000 -0.000000 0.000000 -0.000000 -0.000000 0.000000 -0.000000 -0.000000 0.000000 0.000000 -0.000000 0.000002 0.000000 -0.000000 0.000000 0.000000 -0.000000 0.000002 0.000000 -0.000000 0.000000 -0.000000 -0.000000 0.000000 -0.000000 -1.549417 12.009296 -14.387749 31.454821 -12.063123 -28.260567 13.620991 -95.334182 12.722085 50.368827 5.053064 5.782395 -36.712154 8.815680 -10.777661 -16.243761 26.446713 7.523744 -0.000004 0.000001 -0.000001 -5.519767 3.879225 -28.067913 0.072880 0.476064 -26.349108 0.000002 0.000002 0.000000 -1.215695 0.186475 -38.872867 -0.547334 -2.157168 -27.438374 0.000000 0.000001 0.000001 -2.185189 0.846590 -45.200594 -0.810131 -2.711880 -33.778854 -0.000001 0.000000 -0.000001 -4.008960 2.832776 -51.177170 -1.975225 -4.777051 -45.307701 0.000002 -0.000001 0.000004 0.000002 0.000002 -0.000001 0.070545 8.784311 12.717116 10.338239 42.983917 42.820744 0.774101 74.185854 -0.763965 40.578605 5.689621 -10.247166 13.782080 1.949540 14.554313 5.966420 -16.496587 1.762859 0.000000 0.000002 -0.000001 -5.946122 -7.229608 32.329720 0.147427 -0.759746 18.949327 0.000003 0.000003 0.000001 -11.421784 -6.358765 41.782497 -0.583460 1.928030 32.958238 0.000001 0.000000 0.000001 -12.688866 -5.906368 46.903022 -1.972465 4.427607 45.878483 -0.000002 -0.000001 -0.000001 -15.002794 -4.734173 50.372051 -3.379234 7.640898 50.210852 -0.000001 0.000005 0.000003 0.000000 -0.000001 -0.000002 -0.000000 -0.000000 -0.000001 0.000001 -0.000000 -0.000001 -0.000000 -0.000000 -0.000001 -0.000000 -0.000000 -0.000001 -0.000000 -0.000000 -0.000001 0.000001 -0.000000 -0.000001 -0.000000 -0.000000 -0.000001 -0.000000 -0.000000 -0.000001 -0.000000 -0.000000 -0.000001 0.000001 -0.000000 -0.000001 -0.000000 -0.000001 -0.000000 -0.000000 -0.000001 -0.000000 -0.000000 -0.000001 -0.000000 
